<?xml version="1.0" encoding="utf-8"?>
<!-- Generator: Adobe Illustrator 21.0.2, SVG Export Plug-In . SVG Version: 6.00 Build 0)  -->
<svg version="1.1" xmlns="http://www.w3.org/2000/svg" xmlns:xlink="http://www.w3.org/1999/xlink" x="0px" y="0px"
	 viewBox="0 0 235.2 178.8" style="enable-background:new 0 0 235.2 178.8;" xml:space="preserve">
<style type="text/css">
	.st0{fill-rule:evenodd;clip-rule:evenodd;fill:none;stroke:#D1D3D4;stroke-width:1.9428;stroke-miterlimit:10;}
	.st1{fill-rule:evenodd;clip-rule:evenodd;fill:url(#SVGID_1_);}
	.st2{fill-rule:evenodd;clip-rule:evenodd;fill:none;stroke:#6D6E71;stroke-width:7.8632;stroke-miterlimit:10;}
	.st3{fill-rule:evenodd;clip-rule:evenodd;fill:none;stroke:#7DCEF1;stroke-width:7;stroke-miterlimit:10;}
	.st4{fill-rule:evenodd;clip-rule:evenodd;fill:#009ADA;}
	.st5{fill-rule:evenodd;clip-rule:evenodd;fill:none;stroke:url(#SVGID_2_);stroke-width:3;stroke-miterlimit:10;}
	.st6{fill:#003660;}
</style>
<g id="Layer_1">
</g>
<g id="TECHLogo_copy">
	<path class="st0" d="M136.2,123.8c-10.2,12-25.5,19.6-42.7,19.6c-30.7,0-55.5-24.3-55.5-54.2c0-30,24.9-54.2,55.5-54.2
		c12.6,0,24.3,4.1,33.7,11.1"/>
	<linearGradient id="SVGID_1_" gradientUnits="userSpaceOnUse" x1="6.6487" y1="83.0064" x2="158.5552" y2="83.0064">
		<stop  offset="0" style="stop-color:#003660"/>
		<stop  offset="1" style="stop-color:#006FBA"/>
	</linearGradient>
	<path class="st1" d="M70.7,14.5c11.8-3.7,24.5-4.4,36.6-2l-1.5,7.5c-8.3-1.6-16.9-1.7-25.2-0.1c-8.3,1.6-16.4,4.7-23.6,9.2
		l-1.5-2.4C43,34.5,33,46.5,27.5,60.4C22,74.2,21,89.8,24.8,104.2l-4.6,1.2c-4.1-15.4-3-32,2.9-46.8c5.8-14.8,16.5-27.6,30-36
		C58.6,19.1,64.5,16.4,70.7,14.5z M126,142.1l1.3,2.1c-10.1,5.9-21.8,9.3-33.5,9.4c-16.7,0.2-33.4-6.1-45.8-17.3
		c-6.2-5.6-11.3-12.3-15.1-19.8c-3.7-7.5-6.1-15.7-6.9-23.9l2.5-0.2c0.7,8,3,15.9,6.6,23.1c3.6,7.2,8.5,13.7,14.5,19
		c11.9,10.8,28,16.9,44.1,16.7l0-2.4c10.8-0.1,21.7-3.2,31.1-8.7L126,142.1z M112,13.5l-1.9,7.3c13.7,3.6,26.3,11.6,35.3,22.5
		l5.9-4.8C141.2,26.4,127.2,17.5,112,13.5z M158.6,123.4l-4.2-2.4c-4.6,8.2-11,15.5-18.5,21.3c-7.5,5.7-16.2,9.9-25.3,12.3l1.2,4.6
		c9.8-2.5,19.1-7,27.1-13.1C146.9,140,153.6,132.2,158.6,123.4z M104.7,165.2c-10.4,1.6-21.2,1-31.4-1.7l0.6-2.3l0.5-1.9
		c-14.9-3.8-28.5-12.3-38.5-24l3.7-3.1c9.3,10.9,22.1,18.9,36.1,22.4c9.1,2.3,18.6,2.8,27.8,1.5l0.7,4.7l0.3,1.9
		c14.4-2.1,28.2-8.4,39.2-18l1.6,1.8C133.7,156.5,119.5,162.9,104.7,165.2z M94.6,0l0,2.5c-18-0.4-35.9,5.3-50.5,15.7
		C29.5,28.7,18.4,44,13,61.1l2.4,0.7c-2.8,8.9-4.1,18.3-3.7,27.6c0.3,9.3,2.3,18.6,5.8,27.2c3.5,8.7,8.4,16.7,14.6,23.7
		c6.2,7,13.6,12.9,21.8,17.4l-1.2,2.2l-1.2,2.2c-8.7-4.8-16.5-11-23.1-18.4c-6.6-7.4-11.8-16-15.5-25.2c-3.7-9.2-5.8-19-6.1-28.9
		c-0.4-9.9,1-19.8,4-29.3C16.2,42.7,27.6,27,42.6,16.2C57.6,5.4,76.1-0.4,94.6,0z M125.2,13.5l-1,2.2c-14.3-6.4-30.6-8.2-45.9-5.2
		c-15.4,3-29.8,10.7-40.7,22C26.7,43.8,19.3,58.4,16.8,73.9c-2.6,15.4-0.2,31.6,6.5,45.8l-2.2,1c-7-14.6-9.4-31.3-6.7-47.2
		c2.6-15.9,10.2-31,21.4-42.6C47.1,19.3,62,11.3,77.8,8.2C93.7,5.1,110.4,7,125.2,13.5z M34.8,126.1c-4.1-6-7.2-12.6-9.3-19.5
		l-4.6,1.4c2.2,7.4,5.6,14.5,9.9,20.9L34.8,126.1z"/>
	<path class="st2" d="M171.9,80.8"/>
	<path class="st3" d="M29.4,92.9c-2.8-34.8,23.1-65.3,57.9-68.1c16.8-1.4,32.6,4,44.8,13.8"/>
	<path class="st4" d="M59.6,16.1c11.6-5.4,24.4-7.9,37.2-7.2l-0.3,4.9c-9.1-0.5-18.3,0.7-26.9,3.6c-8.6,2.9-16.8,7.4-23.8,13.2
		l-1.2-1.4c-12.1,10-20.9,24.1-24.6,39.4c-1.9,7.6-2.6,15.6-2,23.4c0.6,7.9,2.4,15.6,5.4,22.9l-2.9,1.2c-3.1-7.6-5.1-15.7-5.7-23.8
		c-0.6-8.2,0.1-16.5,2.1-24.4c3.9-15.9,13-30.6,25.7-41C47.9,22.5,53.6,18.9,59.6,16.1z M136.4,142l1,1.3
		c-9.9,7.8-21.9,13-34.4,14.9c-8.9,1.3-18,0.9-26.8-1.1c-8.8-2-17.2-5.7-24.6-10.7c-7.4-5-13.9-11.5-19-18.9
		c-5.1-7.4-8.8-15.8-10.8-24.6l1.6-0.4c2,8.5,5.6,16.7,10.6,24c5,7.3,11.3,13.6,18.6,18.5c7.3,5,15.5,8.5,24,10.5
		c8.6,2,17.5,2.3,26.2,1.1l-0.2-1.5c6-0.9,11.8-2.6,17.4-5c5.5-2.4,10.8-5.5,15.5-9.3L136.4,142z M101.7,9.3l-0.6,4.9
		c15.2,1.8,29.7,8.5,40.9,18.9l3.4-3.6C133.4,18.4,117.9,11.2,101.7,9.3z M169,46.2l-2.8,1.5c-5.7-10.8-13.8-20.4-23.6-27.7
		c-9.8-7.4-21.2-12.5-33.2-15l0.6-3.1c12.4,2.6,24.3,7.9,34.4,15.6C154.7,25.1,163.1,35,169,46.2z M164.7,115.2l-2.9-1.2
		c-3.7,9.3-9.3,17.8-16.3,24.9c-7,7.1-15.5,12.7-24.8,16.5l1.2,2.9c9.7-3.9,18.5-9.8,25.9-17.2C155,133.8,160.8,124.9,164.7,115.2z
		 M114.9,163.8c-10.3,3-21.1,3.9-31.8,2.6l0.2-1.6l0.2-1.3c-15.8-1.8-30.9-8.6-42.7-19.2l2.1-2.3c11.3,10.1,25.9,16.6,41,18.4
		c9.8,1.2,19.9,0.3,29.4-2.4l0.9,3l0.4,1.2c14.3-4.2,27.4-12.4,37.2-23.6l1.2,1C142.8,151.2,129.5,159.6,114.9,163.8z M114.8,9.1
		l-0.4,1.5c-7.7-2.2-15.7-3.3-23.7-3.1c-8,0.2-16,1.6-23.5,4.2c-15.2,5.2-28.7,15-38.2,27.9c-9.5,12.9-15,28.7-15.4,44.7
		c-0.2,8,0.8,16,3,23.7c2.2,7.7,5.6,15.1,10,21.7l-1.3,0.9c-4.5-6.8-7.9-14.3-10.2-22.2c-2.2-7.8-3.3-16-3-24.2
		c0.4-16.3,6-32.5,15.7-45.6c4.8-6.6,10.7-12.4,17.3-17.2c6.6-4.8,13.9-8.6,21.6-11.3c7.7-2.6,15.9-4.1,24-4.3
		C98.7,5.8,106.9,6.8,114.8,9.1z M37.1,136.5c-5.1-5.7-9.4-12.2-12.5-19.2l-2.9,1.3c3.3,7.3,7.7,14,13.1,19.9L37.1,136.5z"/>
	<linearGradient id="SVGID_2_" gradientUnits="userSpaceOnUse" x1="0" y1="103.3554" x2="154.5411" y2="103.3554">
		<stop  offset="0" style="stop-color:#003660"/>
		<stop  offset="1" style="stop-color:#006FBA"/>
	</linearGradient>
	<path class="st5" d="M21.4,28.8C8.9,44.4,1.5,64.2,1.5,85.8c0,50.6,41,91.5,91.5,91.5c23.2,0,44.4-8.6,60.5-22.8"/>
	<path class="st2" d="M171.9,80.8"/>
	<g>
		<path class="st6" d="M100.1,108.7c-13.6,0-24.2-11.4-24.2-26.1s10.6-26.1,24.2-26.1c11.3,0,19.7,6.4,22.8,16.6h-10.3
			c-2.2-4.5-6.7-7.9-12.5-7.9c-8.2,0-14.7,7.9-14.7,17.4c0,9.5,6.5,17.4,14.7,17.4c5.7,0,10.2-3.5,12.5-8.1h10.2
			C119.6,102.2,111.2,108.7,100.1,108.7z"/>
		<path class="st6" d="M159.8,88.1h-9.5v-1.9c0-2.2-0.6-7.3-6.9-7.3c-4.2,0-7.2,3.2-7.2,7.3v21.7h-9.5V70.8h9.1v3.6
			c2.4-2.8,5.6-4.5,9.6-4.5c8.7,0,14.5,6.6,14.5,16.3V88.1z"/>
		<path class="st6" d="M196.1,107.9h-9.1v-3.4c-2.3,2.7-5.5,4.2-9.4,4.2c-8.8,0-14.6-6.6-14.6-16.3V70.8h9.5v21.7
			c0,2.1,0.7,7.3,6.9,7.3c4.2,0,7.2-3.2,7.2-7.3V70.8h9.5V107.9z"/>
		<path class="st6" d="M224.5,107.9l-7.7-12.6l-7.8,12.6h-10.7l13-19.2l-12.2-17.9h10.8l6.9,11.3l6.8-11.3h10.8l-12.2,17.9l13,19.2
			H224.5z"/>
	</g>
</g>
</svg>
