<?xml version="1.0" standalone="no"?>
<!DOCTYPE svg PUBLIC "-//W3C//DTD SVG 20010904//EN"
 "http://www.w3.org/TR/2001/REC-SVG-20010904/DTD/svg10.dtd">
<svg version="1.0" xmlns="http://www.w3.org/2000/svg"
 width="16.000000pt" height="16.000000pt" viewBox="0 0 16.000000 16.000000"
 preserveAspectRatio="xMidYMid meet">
<metadata>
Created by potrace 1.11, written by Peter Selinger 2001-2013
</metadata>
<g transform="translate(0.000000,16.000000) scale(0.002235,-0.002235)"
fill="#000000" stroke="none">
<path d="M3637 7154 c-1 -1 -34 -5 -72 -8 -68 -5 -86 -7 -185 -21 -25 -4 -54
-8 -65 -9 -11 -1 -35 -6 -53 -10 -19 -4 -43 -9 -55 -11 -12 -1 -42 -7 -67 -13
-25 -6 -56 -13 -70 -16 -20 -4 -93 -23 -138 -36 -4 -2 -11 -4 -17 -5 -88 -20
-475 -164 -525 -195 -8 -5 -44 -23 -80 -40 -182 -88 -433 -249 -619 -398 -25
-20 -51 -41 -57 -47 -233 -206 -377 -360 -537 -571 -43 -56 -77 -107 -77 -112
0 -6 -4 -12 -8 -14 -10 -3 -115 -169 -153 -238 -13 -25 -28 -48 -34 -52 -5 -4
-7 -8 -2 -8 4 0 -3 -17 -16 -37 -99 -163 -246 -550 -303 -798 -8 -38 -17 -78
-20 -87 -12 -50 -22 -101 -29 -153 -3 -22 -7 -47 -10 -55 -2 -8 -7 -42 -10
-75 -4 -33 -8 -73 -10 -90 -10 -81 -17 -223 -17 -345 0 -226 12 -376 48 -590
4 -19 8 -48 11 -65 2 -16 14 -66 25 -110 11 -44 21 -87 23 -95 20 -100 88
-305 164 -495 23 -56 147 -308 178 -360 55 -93 146 -239 153 -245 3 -3 20 -27
39 -55 142 -207 426 -510 642 -681 105 -84 390 -284 404 -284 2 0 26 -13 53
-29 l49 -29 13 22 c34 53 80 147 76 154 -3 5 -23 17 -45 28 -23 10 -41 22 -41
27 0 4 -5 7 -11 7 -11 0 -229 144 -294 194 -225 175 -458 405 -603 596 -23 30
-46 60 -52 67 -20 24 -170 252 -170 258 0 4 -9 19 -19 34 -27 38 -151 283
-185 366 -16 39 -37 88 -46 110 -27 62 -34 89 -21 81 6 -4 11 -12 11 -17 0
-40 165 -384 266 -554 76 -128 68 -119 93 -104 11 8 21 19 21 26 0 7 -20 44
-44 81 -75 118 -147 262 -141 283 10 30 33 22 51 -18 10 -21 25 -49 33 -62 8
-13 16 -29 17 -35 1 -6 16 -32 33 -58 17 -25 31 -49 31 -52 0 -21 222 -335
289 -408 19 -21 40 -47 48 -58 20 -28 34 -25 73 15 l34 35 113 -112 c62 -62
113 -117 113 -123 0 -5 -13 -23 -30 -38 -38 -36 -38 -49 2 -80 18 -13 44 -34
58 -46 14 -11 30 -24 35 -28 6 -5 31 -25 57 -46 25 -20 51 -37 56 -37 5 0 12
-7 16 -15 3 -8 10 -15 16 -15 5 0 31 -15 57 -34 119 -84 318 -192 523 -283 87
-39 328 -121 405 -139 45 -10 55 -22 45 -50 -8 -19 -6 -26 10 -34 11 -6 20 -8
20 -6 0 3 12 1 27 -5 14 -5 40 -12 57 -15 17 -2 41 -7 54 -9 12 -3 32 -7 45
-9 12 -2 40 -7 62 -11 22 -4 54 -9 70 -10 17 -2 33 -3 38 -4 4 0 7 -12 7 -26
0 -21 5 -25 28 -25 15 -1 54 -4 87 -7 130 -14 483 -7 635 12 80 9 127 16 140
20 8 2 31 6 50 9 247 36 628 164 883 295 213 110 427 248 573 369 110 91 156
133 267 244 l129 128 -22 23 -22 23 -144 -144 c-139 -139 -145 -144 -163 -128
-19 17 -15 22 112 150 73 72 152 156 177 185 25 29 50 58 55 65 27 30 106 138
145 196 24 36 47 66 52 68 4 2 8 7 8 11 0 4 23 46 51 92 71 119 227 436 217
443 -11 8 -99 46 -107 46 -5 0 -14 -15 -21 -32 -6 -18 -16 -40 -21 -48 -5 -8
-12 -22 -15 -30 -29 -73 -112 -230 -121 -230 -7 0 -35 14 -63 30 -28 16 -54
30 -58 30 -4 0 -18 -19 -31 -43 -27 -47 -150 -236 -166 -253 -5 -6 -21 -26
-35 -44 -14 -18 -32 -41 -40 -50 -8 -10 -35 -42 -60 -71 -79 -94 -254 -263
-348 -338 l-43 -33 -18 21 -19 22 -85 -63 c-235 -173 -506 -309 -809 -408 -54
-17 -110 -33 -125 -36 -16 -3 -50 -12 -78 -19 -27 -8 -68 -17 -90 -20 -81 -12
-98 -16 -116 -26 -10 -5 -16 -16 -13 -24 6 -15 -5 -19 -86 -31 -68 -10 -503
-12 -563 -3 -28 5 -77 11 -107 15 -30 3 -71 9 -90 14 -19 5 -53 11 -75 14 -92
12 -396 100 -490 141 -16 8 -59 26 -95 40 -79 33 -272 133 -346 180 -30 19
-58 35 -63 35 -4 0 -16 9 -26 20 -10 11 -24 20 -32 20 -7 0 -13 4 -13 8 0 4
-15 16 -32 27 -72 42 -251 196 -375 322 -107 108 -137 133 -153 128 -11 -3
-20 -3 -20 2 0 4 -10 19 -23 33 -36 40 -147 190 -147 200 0 4 5 10 12 12 8 3
-11 41 -49 104 -123 199 -228 425 -300 649 -7 21 -16 30 -31 29 -17 0 -23 8
-31 45 -8 37 -7 47 7 57 13 10 14 17 4 50 -6 22 -14 56 -17 78 -4 21 -9 48
-11 60 -3 11 -7 35 -10 51 -2 17 -9 57 -14 90 -29 186 -33 545 -7 720 3 17 8
55 11 85 7 56 13 95 16 95 1 0 4 14 6 30 3 17 12 58 20 93 9 35 17 68 18 75 3
18 36 130 43 147 3 8 7 17 8 20 29 108 170 425 238 535 150 244 248 373 402
535 55 58 174 171 216 205 13 11 47 38 74 61 28 23 94 72 148 109 l99 68 24
-29 c13 -16 23 -34 24 -41 1 -28 32 -23 80 14 30 23 304 158 340 168 3 1 19 7
35 14 53 23 291 100 325 106 18 3 36 8 40 10 6 4 45 13 85 19 11 2 61 11 110
19 161 28 187 30 415 31 197 1 297 -4 390 -18 14 -2 45 -7 70 -10 25 -4 52 -9
62 -12 17 -5 27 27 43 138 8 51 4 50 90 33 75 -14 97 -26 91 -49 -3 -11 -13
-52 -22 -90 -17 -72 -13 -85 27 -86 19 0 183 -56 294 -100 106 -42 293 -136
380 -191 90 -56 137 -87 150 -97 6 -4 35 -25 65 -47 141 -102 363 -309 437
-407 15 -21 34 -37 40 -38 7 0 30 15 50 33 21 18 71 59 111 91 39 32 72 60 72
62 0 10 -151 175 -227 248 -29 28 -53 53 -53 57 0 3 9 16 20 29 11 13 20 26
20 31 0 17 -207 184 -345 278 -133 91 -226 146 -365 216 -63 32 -117 59 -119
61 -2 2 4 21 12 43 l16 39 -85 36 c-47 20 -91 36 -98 36 -7 0 -16 4 -21 8 -6
5 -44 18 -85 31 -110 33 -130 42 -130 56 0 15 -214 72 -340 90 -25 3 -52 8
-60 10 -8 2 -35 7 -60 9 -25 3 -63 8 -85 10 -177 22 -557 23 -685 1 -14 -2
-47 -7 -75 -10 -27 -3 -61 -8 -75 -11 -14 -3 -32 -6 -40 -6 -8 0 -35 -5 -60
-10 -25 -5 -56 -12 -70 -14 -14 -3 -52 -12 -85 -20 -33 -8 -69 -17 -81 -19
-169 -38 -497 -168 -689 -274 -44 -24 -96 -52 -115 -63 -37 -19 -154 -94 -193
-121 -90 -66 -214 -159 -258 -197 -69 -57 -345 -333 -384 -384 -16 -22 -35
-45 -42 -52 -33 -33 -192 -261 -250 -358 -66 -111 -148 -268 -198 -381 -25
-56 -84 -207 -89 -230 -2 -5 -6 -17 -9 -25 -5 -15 -51 -166 -67 -225 -5 -16
-11 -43 -13 -60 -3 -16 -12 -57 -20 -90 -9 -33 -19 -82 -23 -110 -3 -27 -8
-52 -9 -55 -2 -3 -7 -37 -11 -75 -4 -39 -8 -79 -10 -90 -1 -11 -3 -35 -3 -52
-1 -18 -5 -33 -10 -33 -4 0 -7 10 -6 23 1 12 6 53 9 90 4 37 9 76 11 86 2 10
6 42 10 72 3 30 15 92 26 139 11 47 22 97 24 112 2 15 6 31 9 36 3 5 8 23 11
41 3 19 12 49 20 68 23 56 20 82 -12 89 -50 12 -64 23 -54 42 5 9 21 53 36 97
114 338 346 743 596 1035 172 202 336 356 574 538 114 87 354 231 517 311 69
33 129 61 132 61 3 0 29 11 58 24 44 20 179 69 288 106 81 27 283 76 390 95
64 12 136 22 205 31 28 3 64 8 80 10 17 2 104 6 195 9 91 4 170 8 176 10 7 2
11 22 10 47 l-1 43 -143 0 c-79 0 -144 0 -145 -1z m548 -378 c19 -3 21 -12 16
-63 -1 -9 -19 -11 -58 -9 -32 2 -75 4 -95 5 -36 1 -37 1 -35 41 l2 40 75 -5
c41 -3 84 -7 95 -9z m-3562 -2888 c-4 -91 -4 -94 -11 -76 -8 21 -3 118 7 118
3 0 6 -19 4 -42z m-4 -173 c-1 -42 -4 -73 -7 -70 -9 9 -9 145 0 145 5 0 8 -34
7 -75z m2 -132 c1 -110 13 -242 34 -367 11 -73 12 -97 1 -85 -2 2 -7 29 -11
59 -12 96 -15 114 -19 145 -5 30 -15 161 -20 248 -1 26 1 47 6 47 4 0 8 -21 9
-47z m58 -505 c1 -5 -3 -8 -7 -8 -4 0 -8 12 -9 28 -1 23 -1 24 7 7 5 -11 9
-23 9 -27z m30 -143 c17 -66 43 -160 59 -210 16 -49 28 -92 26 -94 -7 -7 -13
3 -17 29 -3 14 -10 39 -17 55 -6 17 -13 37 -15 45 -3 8 -11 40 -20 70 -9 30
-17 62 -19 70 -2 8 -11 43 -20 76 -16 61 -20 91 -12 83 3 -2 18 -58 35 -124z
m340 -20 c6 -24 11 -46 11 -49 0 -5 -72 -27 -75 -23 -1 1 -9 23 -18 49 l-15
47 25 8 c52 18 60 14 72 -32z m61 -447 c0 -13 -58 -45 -65 -36 -4 6 -35 89
-35 93 0 3 15 11 33 19 32 13 32 13 49 -23 10 -20 18 -43 18 -53z m382 -470
c34 -51 88 -120 128 -164 26 -28 25 -34 -11 -63 -27 -21 -31 -22 -42 -8 -7 9
-32 42 -57 74 -25 32 -51 64 -58 72 -18 19 -62 89 -62 98 0 7 48 40 61 42 3 1
22 -23 41 -51z m3505 -1135 l12 -31 -82 -32 c-45 -18 -86 -33 -92 -34 -5 -1
-37 -10 -69 -20 -62 -18 -75 -14 -76 27 0 9 0 20 0 23 -1 7 271 102 285 100 5
-2 15 -16 22 -33z m-401 -8 c7 -23 8 -38 1 -42 -9 -6 -63 -21 -102 -28 -11 -2
-31 -7 -45 -10 -14 -3 -34 -8 -45 -9 -11 -2 -39 -7 -61 -11 l-41 -7 -7 37 c-8
39 1 54 34 56 8 0 22 2 30 4 8 1 33 6 55 9 22 4 63 13 90 20 74 21 79 20 91
-19z"/>
<path d="M4545 7068 c-2 -13 -9 -42 -14 -65 l-9 -43 37 -6 c20 -3 50 -10 66
-14 17 -5 66 -19 110 -31 361 -97 752 -285 1058 -505 212 -154 486 -414 636
-604 46 -58 91 -114 100 -126 9 -11 21 -28 26 -36 6 -9 27 -41 48 -72 72 -108
106 -162 139 -221 59 -108 54 -102 75 -83 10 8 28 19 40 22 47 15 47 30 -3
118 -87 152 -222 353 -300 445 -11 12 -32 39 -49 60 -70 88 -265 290 -370 383
-152 135 -376 298 -522 382 -18 10 -50 28 -70 39 -272 154 -595 281 -892 350
-46 11 -88 22 -92 25 -5 3 -11 -5 -14 -18z"/>
<path d="M3707 6314 c-1 -1 -38 -4 -82 -8 -44 -3 -91 -8 -105 -10 -22 -4 -54
-9 -151 -22 -14 -2 -48 -8 -75 -14 -27 -7 -56 -13 -64 -15 -182 -38 -439 -135
-640 -241 -295 -156 -605 -408 -805 -655 -74 -92 -98 -123 -148 -196 -32 -46
-57 -87 -57 -93 0 -5 -4 -10 -10 -10 -5 0 -10 -5 -10 -11 0 -6 -9 -23 -19 -38
-25 -35 -143 -270 -171 -341 -24 -60 -80 -216 -86 -240 -2 -8 -14 -56 -28
-107 -13 -50 -27 -104 -30 -120 -26 -145 -36 -207 -42 -258 -10 -93 -13 -478
-4 -496 5 -8 11 -40 14 -70 3 -30 8 -63 10 -74 2 -11 7 -40 10 -65 3 -25 10
-60 15 -77 5 -18 8 -33 5 -33 -3 0 0 -9 6 -20 6 -10 12 -32 14 -47 6 -39 54
-202 71 -240 8 -17 15 -35 15 -40 0 -18 102 -247 152 -343 231 -437 641 -854
1062 -1079 33 -17 66 -37 74 -44 8 -6 17 -11 18 -10 2 1 38 -14 81 -33 43 -20
96 -44 118 -53 97 -44 354 -122 480 -147 22 -4 42 -8 45 -9 3 -1 30 -5 60 -9
30 -5 63 -10 72 -11 143 -27 607 -26 743 1 11 3 36 7 55 10 162 25 384 88 570
161 105 42 333 153 354 173 5 5 -11 43 -38 89 l-47 80 -147 -74 c-251 -124
-483 -200 -742 -241 -19 -3 -44 -7 -55 -9 -39 -6 -170 -17 -235 -19 l-65 -3
-1 -44 -1 -44 -119 0 c-145 1 -271 14 -394 40 -14 3 -36 8 -50 10 -42 7 -70
14 -78 19 -5 3 -19 7 -33 9 -13 3 -44 11 -69 18 -25 7 -47 13 -50 14 -155 42
-433 169 -605 276 -88 55 -232 157 -275 196 -8 7 -37 32 -65 56 -78 67 -223
216 -289 297 -33 41 -63 77 -66 80 -4 3 -45 64 -92 135 -102 153 -190 323
-252 484 -58 150 -59 153 -70 196 -3 11 -16 60 -30 108 -14 48 -27 102 -30
120 -8 44 -16 87 -21 117 -3 14 -7 45 -10 69 -3 24 -7 47 -10 50 -12 20 18 31
89 34 l79 3 3 210 c1 115 5 227 8 249 15 118 21 152 42 244 8 36 17 77 20 91
2 14 8 34 11 45 4 11 8 25 9 30 7 32 62 183 96 265 116 274 282 521 493 736
120 122 265 244 343 289 17 11 32 22 32 26 0 4 14 12 30 19 17 7 30 16 30 21
0 5 5 9 11 9 6 0 23 9 38 19 52 37 266 141 371 179 30 11 64 23 75 28 11 4 25
8 30 9 6 1 31 10 57 19 26 8 62 18 80 21 17 3 34 8 38 10 3 2 18 6 33 9 91 19
126 26 172 32 22 3 51 7 65 10 122 21 533 21 610 0 8 -3 38 -8 65 -11 28 -4
59 -9 70 -10 43 -6 264 -65 335 -90 143 -50 255 -101 419 -192 53 -29 143 -89
232 -155 37 -26 69 -48 72 -48 3 0 31 35 63 77 33 43 65 84 72 91 37 40 34 48
-33 101 -35 28 -67 51 -70 51 -2 0 -14 8 -25 18 -11 9 -36 26 -54 37 -18 11
-64 39 -102 61 -100 60 -255 136 -364 179 -97 38 -259 93 -295 99 -11 2 -47
11 -80 20 -33 8 -78 18 -100 21 -22 4 -47 8 -55 10 -8 3 -33 7 -55 10 -22 3
-53 7 -70 10 -87 13 -457 28 -468 19z"/>
<path d="M924 6013 c-9 -15 -21 -32 -26 -38 -5 -5 -17 -21 -29 -35 -36 -44
-189 -277 -189 -289 0 -6 -4 -11 -10 -11 -5 0 -10 -5 -10 -11 0 -6 -9 -23 -19
-38 -35 -49 -158 -297 -214 -432 -46 -111 -123 -324 -131 -364 -1 -5 -10 -37
-20 -70 -10 -33 -19 -67 -21 -75 -2 -9 -14 -67 -29 -130 -28 -129 -30 -139
-45 -242 -28 -189 -36 -315 -36 -558 1 -198 7 -338 19 -420 2 -14 7 -47 10
-75 3 -27 8 -61 11 -75 3 -14 7 -41 10 -60 14 -87 18 -110 35 -180 11 -41 21
-86 24 -100 6 -31 51 -183 81 -275 60 -185 213 -524 288 -642 15 -24 27 -45
27 -48 0 -9 84 -140 92 -143 4 -2 8 -8 8 -14 0 -23 218 -309 345 -453 107
-121 294 -300 420 -400 28 -21 52 -42 55 -45 3 -3 30 -23 60 -45 30 -22 56
-43 58 -47 2 -5 9 -8 16 -8 7 0 21 -8 32 -18 10 -10 57 -42 104 -72 47 -30 87
-57 90 -60 3 -3 19 -12 35 -20 17 -8 41 -22 55 -31 55 -36 408 -209 427 -209
3 0 19 -6 36 -14 77 -34 256 -95 357 -123 82 -22 252 -64 275 -68 24 -5 126
-22 175 -30 19 -4 53 -8 75 -11 22 -2 51 -6 65 -9 99 -20 589 -27 745 -12 44
5 96 10 115 11 52 5 144 17 150 21 3 2 33 7 65 10 33 4 69 11 80 15 11 4 23 8
28 8 8 1 75 13 97 18 8 1 30 7 48 13 18 5 35 10 37 10 3 1 6 1 8 2 1 0 10 2
20 5 282 68 705 246 946 398 22 15 43 26 45 26 21 0 358 247 471 343 l39 35
-37 46 -38 46 -102 -83 c-56 -45 -104 -85 -107 -88 -12 -14 -235 -162 -325
-216 -176 -106 -244 -139 -530 -263 -111 -48 -444 -148 -589 -176 -87 -17
-170 -30 -251 -40 -21 -2 -51 -7 -65 -9 -133 -25 -712 -25 -834 0 -12 2 -43 6
-71 9 -27 3 -61 8 -75 11 -14 3 -41 8 -60 11 -46 7 -196 39 -210 44 -3 1 -8 2
-12 1 -12 -1 -246 67 -343 101 -179 62 -435 179 -583 265 -41 24 -75 43 -77
43 -7 0 -219 143 -292 197 -300 222 -586 516 -807 828 -132 186 -329 540 -371
665 -1 3 -7 19 -14 35 -31 72 -99 262 -106 294 -2 9 -18 63 -34 120 -37 128
-70 283 -87 407 -8 62 -10 72 -14 77 -1 1 -3 16 -4 32 -2 17 -7 75 -11 130
-16 181 -11 558 9 725 12 97 18 132 32 215 71 414 238 861 453 1215 11 19 24
42 28 50 3 8 9 17 12 20 3 3 36 51 74 106 37 56 87 128 112 160 25 31 45 60
45 63 -1 7 -84 71 -92 71 -3 0 -14 -12 -24 -27z"/>
<path d="M3856 5803 c-1 -1 -56 -5 -121 -9 -116 -6 -170 -11 -170 -14 0 -1 -9
-3 -20 -4 -25 -3 -116 -18 -130 -22 -5 -1 -21 -5 -35 -8 -52 -11 -66 -14 -110
-25 -25 -7 -56 -16 -70 -21 -33 -11 -53 -17 -62 -19 -5 -1 -33 -12 -63 -26
-30 -13 -55 -22 -55 -20 0 3 -16 -4 -35 -15 -20 -11 -44 -20 -54 -20 -11 0
-21 -3 -23 -7 -1 -5 -25 -19 -53 -32 -197 -96 -421 -258 -588 -425 -106 -105
-267 -302 -267 -325 0 -6 -4 -11 -8 -11 -18 0 -179 -296 -207 -380 -1 -3 -7
-18 -14 -35 -44 -102 -109 -343 -126 -465 -3 -25 -9 -60 -11 -78 -3 -19 -7
-75 -9 -125 -2 -51 -5 -94 -6 -97 -1 -3 -1 -7 -1 -10 0 -3 3 -57 6 -120 16
-319 90 -598 232 -878 53 -102 147 -259 184 -305 139 -173 159 -195 260 -293
84 -81 234 -204 249 -204 5 0 11 -4 13 -9 10 -27 266 -171 422 -238 98 -42
285 -104 356 -118 8 -2 49 -10 91 -19 75 -15 107 -20 244 -34 129 -13 439 -6
530 12 11 2 40 7 65 11 148 24 365 87 505 147 291 126 520 281 738 502 l108
109 -28 29 -27 29 -91 -93 c-101 -104 -154 -152 -241 -219 -80 -62 -181 -129
-193 -129 -6 0 -11 -4 -11 -9 0 -13 -271 -144 -382 -185 -151 -56 -367 -107
-522 -123 -90 -10 -414 -10 -486 -1 -92 12 -132 19 -205 34 -157 33 -239 57
-364 106 -93 36 -265 119 -269 130 -2 4 -9 8 -16 8 -16 0 -242 150 -286 190
-9 8 -45 40 -80 70 -198 172 -385 415 -505 657 -50 103 -96 213 -88 213 3 0 1
6 -4 13 -13 16 -56 154 -69 220 -2 10 -6 27 -9 37 -3 10 -8 33 -11 51 -2 19
-7 50 -11 69 -3 19 -6 52 -7 72 -1 21 -4 38 -7 38 -9 0 -8 380 2 445 5 33 11
76 14 95 2 19 10 60 16 90 6 30 13 62 14 70 2 8 4 15 5 15 1 0 3 9 4 20 13
106 227 587 267 603 5 2 9 9 9 15 0 22 171 236 262 328 99 100 136 133 208
189 25 19 47 38 48 42 2 5 10 8 17 8 7 0 15 3 17 8 12 27 256 168 418 240 132
59 388 129 575 157 116 17 363 23 485 11 118 -12 145 -15 145 -16 0 -1 9 -3
20 -4 18 -2 38 -6 113 -20 12 -3 50 -12 85 -21 34 -9 67 -18 72 -19 120 -26
489 -194 570 -258 6 -5 37 -27 70 -49 l59 -41 22 27 c22 28 22 55 0 55 -6 1
-27 14 -46 30 -19 17 -40 30 -47 30 -7 0 -13 5 -13 10 0 6 -6 10 -14 10 -8 0
-16 3 -18 8 -4 9 -57 40 -169 96 -274 141 -592 227 -889 241 -47 2 -85 5 -85
5 0 3 -86 5 -89 3z"/>
</g>
</svg>
